<svg width="65" height="64" viewBox="0 0 65 64" fill="none" xmlns="http://www.w3.org/2000/svg">
<g id="Check">
<path id="Vector" opacity="0.2" d="M14.125 50.375C11.825 48.075 13.35 43.25 12.175 40.425C11 37.6 6.5 35.125 6.5 32C6.5 28.875 10.95 26.5 12.175 23.575C13.4 20.65 11.825 15.925 14.125 13.625C16.425 11.325 21.25 12.85 24.075 11.675C26.9 10.5 29.375 6 32.5 6C35.625 6 38 10.45 40.925 11.675C43.85 12.9 48.575 11.325 50.875 13.625C53.175 15.925 51.65 20.75 52.825 23.575C54 26.4 58.5 28.875 58.5 32C58.5 35.125 54.05 37.5 52.825 40.425C51.6 43.35 53.175 48.075 50.875 50.375C48.575 52.675 43.75 51.15 40.925 52.325C38.1 53.5 35.625 58 32.5 58C29.375 58 27 53.55 24.075 52.325C21.15 51.1 16.425 52.675 14.125 50.375Z" fill="#DE5454"/>
<path id="Vector_2" d="M43.5 26L28.825 40L21.5 33M14.125 50.375C11.825 48.075 13.35 43.25 12.175 40.425C11 37.6 6.5 35.125 6.5 32C6.5 28.875 10.95 26.5 12.175 23.575C13.4 20.65 11.825 15.925 14.125 13.625C16.425 11.325 21.25 12.85 24.075 11.675C26.9 10.5 29.375 6 32.5 6C35.625 6 38 10.45 40.925 11.675C43.85 12.9 48.575 11.325 50.875 13.625C53.175 15.925 51.65 20.75 52.825 23.575C54 26.4 58.5 28.875 58.5 32C58.5 35.125 54.05 37.5 52.825 40.425C51.6 43.35 53.175 48.075 50.875 50.375C48.575 52.675 43.75 51.15 40.925 52.325C38.1 53.5 35.625 58 32.5 58C29.375 58 27 53.55 24.075 52.325C21.15 51.1 16.425 52.675 14.125 50.375Z" stroke="#B24343" stroke-width="2" stroke-linecap="round" stroke-linejoin="round"/>
</g>
</svg>
