<svg width="110" height="27" viewBox="0 0 110 27" fill="none" xmlns="http://www.w3.org/2000/svg">
<circle cx="13.4999" cy="13.5" r="3.25" stroke="#DE5454" stroke-width="1.5" stroke-linecap="round" stroke-linejoin="round"/>
<path fill-rule="evenodd" clip-rule="evenodd" d="M13.4999 2.66669C15.2948 2.66669 16.7499 4.12176 16.7499 5.91669C16.7499 6.52552 16.4693 7.47885 15.9092 8.77669L15.1249 10.25L17.0315 8.19927C17.5721 7.54927 18.0304 7.11377 18.4074 6.89385C19.1491 6.46321 20.0321 6.34672 20.8601 6.5703C21.6881 6.79388 22.3924 7.33899 22.8165 8.08444C23.7084 9.63751 23.1813 11.6192 21.6357 12.5239C21.2305 12.759 20.5632 12.9529 19.6359 13.1035L16.7499 13.5L19.3499 13.8532C20.4278 14.0103 21.1894 14.2183 21.6357 14.4772C23.1813 15.3819 23.7084 17.3636 22.8165 18.9167C22.3922 19.6619 21.6878 20.2068 20.8598 20.4302C20.0318 20.6536 19.1489 20.5369 18.4074 20.1062C18.0304 19.8874 17.5721 19.4519 17.0315 18.8008L15.1249 16.75L15.9092 18.2234C16.4682 19.5223 16.7499 20.4756 16.7499 21.0834C16.7499 22.8783 15.2948 24.3334 13.4999 24.3334C11.7049 24.3334 10.2499 22.8783 10.2499 21.0834C10.2499 20.4745 10.5304 19.5212 11.0905 18.2234L11.8749 16.75L9.9682 18.8008C9.42762 19.4519 8.96937 19.8874 8.59237 20.1062C7.8508 20.5369 6.9679 20.6536 6.13992 20.4302C5.31194 20.2068 4.6075 19.6619 4.1832 18.9167C3.29132 17.3636 3.81842 15.3819 5.36403 14.4772C5.7692 14.241 6.43653 14.0482 7.36387 13.8965L10.2499 13.5L7.64987 13.1479C6.57195 12.9909 5.81037 12.7829 5.36403 12.5239C3.81777 11.6192 3.29059 9.63667 4.1832 8.08335C4.60732 7.33791 5.31168 6.7928 6.13967 6.56922C6.96767 6.34564 7.85067 6.46212 8.59237 6.89277C8.96937 7.11269 9.42762 7.5471 9.9682 8.19819L11.8749 10.25C10.7915 7.76702 10.2499 6.32294 10.2499 5.91669C10.2499 4.12176 11.7049 2.66669 13.4999 2.66669V2.66669Z" stroke="#DE5454" stroke-width="1.5" stroke-linecap="round" stroke-linejoin="round"/>
<path d="M40.1319 21.5V4.7H51.0999V7.172H43.2039V11.78H50.3799V14.18H43.2039V19.028H51.0999V21.5H40.1319ZM54.1849 21.5V9.596H56.8969L57.1609 11.204C57.5449 10.628 58.0489 10.172 58.6729 9.836C59.3129 9.484 60.0489 9.308 60.8809 9.308C62.7209 9.308 64.0249 10.02 64.7929 11.444C65.2249 10.788 65.8009 10.268 66.5209 9.884C67.2569 9.5 68.0569 9.308 68.9209 9.308C70.4729 9.308 71.6649 9.772 72.4969 10.7C73.3289 11.628 73.7449 12.988 73.7449 14.78V21.5H70.6729V15.068C70.6729 14.044 70.4729 13.26 70.0729 12.716C69.6889 12.172 69.0889 11.9 68.2729 11.9C67.4409 11.9 66.7689 12.204 66.2569 12.812C65.7609 13.42 65.5129 14.268 65.5129 15.356V21.5H62.4409V15.068C62.4409 14.044 62.2409 13.26 61.8409 12.716C61.4409 12.172 60.8249 11.9 59.9929 11.9C59.1769 11.9 58.5129 12.204 58.0009 12.812C57.5049 13.42 57.2569 14.268 57.2569 15.356V21.5H54.1849ZM78.5674 7.748C78.0074 7.748 77.5434 7.58 77.1754 7.244C76.8234 6.908 76.6474 6.484 76.6474 5.972C76.6474 5.46 76.8234 5.044 77.1754 4.724C77.5434 4.388 78.0074 4.22 78.5674 4.22C79.1274 4.22 79.5834 4.388 79.9354 4.724C80.3034 5.044 80.4874 5.46 80.4874 5.972C80.4874 6.484 80.3034 6.908 79.9354 7.244C79.5834 7.58 79.1274 7.748 78.5674 7.748ZM77.0314 21.5V9.596H80.1034V21.5H77.0314ZM83.5599 21.5V4.22H86.6319V21.5H83.5599ZM91.6768 7.748C91.1168 7.748 90.6528 7.58 90.2848 7.244C89.9328 6.908 89.7568 6.484 89.7568 5.972C89.7568 5.46 89.9328 5.044 90.2848 4.724C90.6528 4.388 91.1168 4.22 91.6768 4.22C92.2368 4.22 92.6928 4.388 93.0448 4.724C93.4128 5.044 93.5968 5.46 93.5968 5.972C93.5968 6.484 93.4128 6.908 93.0448 7.244C92.6928 7.58 92.2368 7.748 91.6768 7.748ZM90.1408 21.5V9.596H93.2128V21.5H90.1408ZM100.773 21.788C99.7493 21.788 98.9093 21.628 98.2533 21.308C97.5973 20.972 97.1093 20.532 96.7893 19.988C96.4693 19.444 96.3093 18.844 96.3093 18.188C96.3093 17.084 96.7413 16.188 97.6053 15.5C98.4693 14.812 99.7653 14.468 101.493 14.468H104.517V14.18C104.517 13.364 104.285 12.764 103.821 12.38C103.357 11.996 102.781 11.804 102.093 11.804C101.469 11.804 100.925 11.956 100.461 12.26C99.9973 12.548 99.7093 12.98 99.5973 13.556H96.5973C96.6773 12.692 96.9653 11.94 97.4613 11.3C97.9733 10.66 98.6293 10.172 99.4293 9.836C100.229 9.484 101.125 9.308 102.117 9.308C103.813 9.308 105.149 9.732 106.125 10.58C107.101 11.428 107.589 12.628 107.589 14.18V21.5H104.973L104.685 19.58C104.333 20.22 103.837 20.748 103.197 21.164C102.573 21.58 101.765 21.788 100.773 21.788ZM101.469 19.388C102.349 19.388 103.029 19.1 103.509 18.524C104.005 17.948 104.317 17.236 104.445 16.388H101.829C101.013 16.388 100.429 16.54 100.077 16.844C99.7253 17.132 99.5493 17.492 99.5493 17.924C99.5493 18.388 99.7253 18.748 100.077 19.004C100.429 19.26 100.893 19.388 101.469 19.388Z" fill="white"/>
</svg>
