<svg width="109" height="26" viewBox="0 0 109 26" fill="none" xmlns="http://www.w3.org/2000/svg">
<circle cx="13" cy="13" r="3.25" stroke="#DE5454" stroke-width="1.5" stroke-linecap="round" stroke-linejoin="round"/>
<path fill-rule="evenodd" clip-rule="evenodd" d="M13 2.16663C14.7949 2.16663 16.25 3.6217 16.25 5.41663C16.25 6.02546 15.9694 6.97879 15.4093 8.27663L14.625 9.74996L16.5317 7.69921C17.0722 7.04921 17.5305 6.61371 17.9075 6.39379C18.6492 5.96315 19.5322 5.84666 20.3602 6.07024C21.1882 6.29382 21.8925 6.83893 22.3167 7.58438C23.2085 9.13745 22.6814 11.1191 21.1358 12.0239C20.7307 12.259 20.0633 12.4529 19.136 12.6035L16.25 13L18.85 13.3531C19.9279 13.5102 20.6895 13.7182 21.1358 13.9771C22.6814 14.8819 23.2085 16.8636 22.3167 18.4166C21.8924 19.1619 21.1879 19.7068 20.3599 19.9301C19.532 20.1535 18.649 20.0369 17.9075 19.6061C17.5305 19.3873 17.0722 18.9518 16.5317 18.3007L14.625 16.25L15.4093 17.7233C15.9683 19.0222 16.25 19.9755 16.25 20.5833C16.25 22.3782 14.7949 23.8333 13 23.8333C11.2051 23.8333 9.74999 22.3782 9.74999 20.5833C9.74999 19.9745 10.0306 19.0211 10.5907 17.7233L11.375 16.25L9.46832 18.3007C8.92774 18.9518 8.46949 19.3873 8.09249 19.6061C7.35093 20.0369 6.46802 20.1535 5.64004 19.9301C4.81206 19.7068 4.10762 19.1619 3.68332 18.4166C2.79145 16.8636 3.31854 14.8819 4.86415 13.9771C5.26932 13.741 5.93665 13.5481 6.86399 13.3965L9.74999 13L7.14999 12.6479C6.07207 12.4908 5.31049 12.2828 4.86415 12.0239C3.3179 11.1191 2.79071 9.13661 3.68332 7.58329C4.10744 6.83785 4.8118 6.29274 5.63979 6.06916C6.46779 5.84558 7.3508 5.96206 8.09249 6.39271C8.46949 6.61263 8.92774 7.04704 9.46832 7.69813L11.375 9.74996C10.2917 7.26696 9.74999 5.82288 9.74999 5.41663C9.74999 3.6217 11.2051 2.16663 13 2.16663V2.16663Z" stroke="#DE5454" stroke-width="1.5" stroke-linecap="round" stroke-linejoin="round"/>
<path d="M39.632 21V4.2H50.6V6.672H42.704V11.28H49.88V13.68H42.704V18.528H50.6V21H39.632ZM53.685 21V9.096H56.397L56.661 10.704C57.045 10.128 57.549 9.672 58.173 9.336C58.813 8.984 59.549 8.808 60.381 8.808C62.221 8.808 63.525 9.52 64.293 10.944C64.725 10.288 65.301 9.768 66.021 9.384C66.757 9 67.557 8.808 68.421 8.808C69.973 8.808 71.165 9.272 71.997 10.2C72.829 11.128 73.245 12.488 73.245 14.28V21H70.173V14.568C70.173 13.544 69.973 12.76 69.573 12.216C69.189 11.672 68.589 11.4 67.773 11.4C66.941 11.4 66.269 11.704 65.757 12.312C65.261 12.92 65.013 13.768 65.013 14.856V21H61.941V14.568C61.941 13.544 61.741 12.76 61.341 12.216C60.941 11.672 60.325 11.4 59.493 11.4C58.677 11.4 58.013 11.704 57.501 12.312C57.005 12.92 56.757 13.768 56.757 14.856V21H53.685ZM78.0676 7.248C77.5076 7.248 77.0436 7.08 76.6756 6.744C76.3236 6.408 76.1476 5.984 76.1476 5.472C76.1476 4.96 76.3236 4.544 76.6756 4.224C77.0436 3.888 77.5076 3.72 78.0676 3.72C78.6276 3.72 79.0836 3.888 79.4356 4.224C79.8036 4.544 79.9876 4.96 79.9876 5.472C79.9876 5.984 79.8036 6.408 79.4356 6.744C79.0836 7.08 78.6276 7.248 78.0676 7.248ZM76.5316 21V9.096H79.6036V21H76.5316ZM83.06 21V3.72H86.132V21H83.06ZM91.1769 7.248C90.6169 7.248 90.1529 7.08 89.7849 6.744C89.4329 6.408 89.2569 5.984 89.2569 5.472C89.2569 4.96 89.4329 4.544 89.7849 4.224C90.1529 3.888 90.6169 3.72 91.1769 3.72C91.7369 3.72 92.1929 3.888 92.5449 4.224C92.9129 4.544 93.0969 4.96 93.0969 5.472C93.0969 5.984 92.9129 6.408 92.5449 6.744C92.1929 7.08 91.7369 7.248 91.1769 7.248ZM89.6409 21V9.096H92.7129V21H89.6409ZM100.273 21.288C99.2494 21.288 98.4094 21.128 97.7534 20.808C97.0974 20.472 96.6094 20.032 96.2894 19.488C95.9694 18.944 95.8094 18.344 95.8094 17.688C95.8094 16.584 96.2414 15.688 97.1054 15C97.9694 14.312 99.2654 13.968 100.993 13.968H104.017V13.68C104.017 12.864 103.785 12.264 103.321 11.88C102.857 11.496 102.281 11.304 101.593 11.304C100.969 11.304 100.425 11.456 99.9614 11.76C99.4974 12.048 99.2094 12.48 99.0974 13.056H96.0974C96.1774 12.192 96.4654 11.44 96.9614 10.8C97.4734 10.16 98.1294 9.672 98.9294 9.336C99.7294 8.984 100.625 8.808 101.617 8.808C103.313 8.808 104.649 9.232 105.625 10.08C106.601 10.928 107.089 12.128 107.089 13.68V21H104.473L104.185 19.08C103.833 19.72 103.337 20.248 102.697 20.664C102.073 21.08 101.265 21.288 100.273 21.288ZM100.969 18.888C101.849 18.888 102.529 18.6 103.009 18.024C103.505 17.448 103.817 16.736 103.945 15.888H101.329C100.513 15.888 99.9294 16.04 99.5774 16.344C99.2254 16.632 99.0494 16.992 99.0494 17.424C99.0494 17.888 99.2254 18.248 99.5774 18.504C99.9294 18.76 100.393 18.888 100.969 18.888Z" fill="#2F2B3D" fill-opacity="0.9"/>
</svg>
