<svg width="63" height="63" viewBox="0 0 63 63" fill="none" xmlns="http://www.w3.org/2000/svg">
<g id="Paper">
<path id="Vector" opacity="0.2" d="M51.7535 8.83476L5.88161 21.7547C5.49113 21.8614 5.14304 22.086 4.88478 22.3977C4.62651 22.7094 4.47062 23.0932 4.43834 23.4967C4.40606 23.9003 4.49895 24.3039 4.70437 24.6528C4.90979 25.0016 5.21775 25.2786 5.5863 25.4461L26.6519 35.4129C27.0646 35.604 27.396 35.9354 27.5871 36.348L37.5539 57.4137C37.7214 57.7822 37.9984 58.0902 38.3472 58.2956C38.696 58.501 39.0997 58.5939 39.5032 58.5616C39.9068 58.5293 40.2905 58.3735 40.6023 58.1152C40.914 57.8569 41.1385 57.5088 41.2453 57.1184L54.1652 11.2465C54.2631 10.9117 54.2692 10.5568 54.1827 10.2189C54.0963 9.88105 53.9206 9.57263 53.674 9.32602C53.4273 9.0794 53.1189 8.90367 52.781 8.81724C52.4431 8.73081 52.0882 8.73686 51.7535 8.83476Z" fill="#FFB7B9"/>
<path id="Union" fill-rule="evenodd" clip-rule="evenodd" d="M53.0287 7.84843C52.5188 7.718 51.9834 7.72665 51.478 7.87342L51.4727 7.87497L5.61776 20.7901L5.61362 20.7912C5.02648 20.9527 4.50314 21.2908 4.1146 21.7597C3.72516 22.2298 3.49008 22.8085 3.4414 23.417C3.39272 24.0255 3.5328 24.6342 3.84257 25.1602C4.15088 25.6838 4.61238 26.1 5.16468 26.3529L26.2241 36.3168L26.2241 36.3168L26.2316 36.3203C26.4292 36.4118 26.588 36.5706 26.6795 36.7683L26.6795 36.7683L26.683 36.7757L36.6469 57.8352C36.8998 58.3875 37.3161 58.849 37.8396 59.1573C38.3657 59.467 38.9744 59.6071 39.5829 59.5584C40.1913 59.5098 40.77 59.2747 41.2401 58.8852C41.7091 58.4967 42.0472 57.9733 42.2086 57.3862L42.2098 57.3821L55.1249 11.5272L55.1264 11.522C55.2732 11.0166 55.2819 10.481 55.1514 9.97112C55.0205 9.45943 54.7544 8.99238 54.3809 8.61891C54.0075 8.24545 53.5404 7.97932 53.0287 7.84843ZM52.0245 9.79731L51.7534 8.83476L52.0341 9.79455C52.1966 9.74701 52.369 9.74407 52.5331 9.78604C52.6972 9.82802 52.847 9.91336 52.9667 10.0331C53.0865 10.1529 53.1718 10.3027 53.2138 10.4668C53.2558 10.6308 53.2528 10.8032 53.2053 10.9658L53.2052 10.9658L53.2025 10.9754L40.2826 56.8473L40.2826 56.8472L40.2806 56.8546C40.228 57.0468 40.1175 57.218 39.9642 57.3451C39.8108 57.4722 39.6219 57.5489 39.4234 57.5648C39.2248 57.5807 39.0262 57.535 38.8545 57.4339C38.6829 57.3328 38.5466 57.1813 38.4642 56.9999L38.4577 56.986L28.4944 35.9278L28.4925 35.9238C28.4923 35.9233 28.492 35.9228 28.4918 35.9223L39.1222 25.2919C39.5127 24.9013 39.5127 24.2682 39.1222 23.8777C38.7317 23.4871 38.0985 23.4871 37.708 23.8777L27.0776 34.508C27.0772 34.5078 27.0767 34.5076 27.0763 34.5074L6.01385 24.5422L5.9999 24.5357C5.81856 24.4533 5.66702 24.317 5.56594 24.1453C5.46486 23.9737 5.41915 23.775 5.43503 23.5765C5.45092 23.3779 5.52763 23.1891 5.65471 23.0357C5.78179 22.8823 5.95307 22.7718 6.14521 22.7193L6.14522 22.7193L6.15259 22.7172L52.0245 9.79731Z" fill="#DE5454"/>
</g>
</svg>
