<svg xmlns="http://www.w3.org/2000/svg" width="20" height="16" viewBox="0 0 20 16" fill="none">
  <path d="M19.6885 1.89399C18.9647 2.21572 18.1857 2.43273 17.3684 2.52985C18.2029 2.03027 18.8428 1.23895 19.1445 0.294949C18.364 0.758156 17.4999 1.09427 16.5795 1.27572C15.8429 0.490783 14.793 0 13.6312 0C11.4007 0 9.59224 1.80846 9.59224 4.03937C9.59224 4.3555 9.62781 4.66364 9.69695 4.95978C6.33981 4.79113 3.36314 3.18329 1.37083 0.739371C1.02313 1.33566 0.824099 2.02947 0.824099 2.77044C0.824099 4.17165 1.53709 5.4082 2.62097 6.13239C1.95913 6.11121 1.33606 5.92936 0.791327 5.62682C0.790927 5.6436 0.790928 5.66079 0.790928 5.67797C0.790928 7.63471 2.18334 9.26692 4.03137 9.63861C3.69246 9.73053 3.33556 9.78009 2.96708 9.78009C2.7065 9.78009 2.45351 9.75491 2.20692 9.70735C2.72129 11.312 4.21282 12.4802 5.98012 12.5126C4.59769 13.596 2.85637 14.2419 0.963581 14.2419C0.637858 14.2419 0.316131 14.2227 0 14.1851C1.78808 15.3318 3.91107 16 6.19194 16C13.622 16 17.6846 9.84523 17.6846 4.50737C17.6846 4.33232 17.681 4.15767 17.6734 3.98421C18.4623 3.4159 19.1473 2.7041 19.6885 1.89399Z" fill="white"/>
</svg>