<svg width="65" height="64" viewBox="0 0 65 64" fill="none" xmlns="http://www.w3.org/2000/svg">
<g id="User Info">
<path id="Vector" opacity="0.2" d="M50.5 8H14.5C13.9696 8 13.4609 8.21071 13.0858 8.58579C12.7107 8.96086 12.5 9.46957 12.5 10V54C12.5 54.5304 12.7107 55.0391 13.0858 55.4142C13.4609 55.7893 13.9696 56 14.5 56H50.5C51.0304 56 51.5391 55.7893 51.9142 55.4142C52.2893 55.0391 52.5 54.5304 52.5 54V10C52.5 9.46957 52.2893 8.96086 51.9142 8.58579C51.5391 8.21071 51.0304 8 50.5 8ZM32.5 42C30.9177 42 29.371 41.5308 28.0554 40.6518C26.7398 39.7727 25.7145 38.5233 25.109 37.0615C24.5035 35.5997 24.345 33.9911 24.6537 32.4393C24.9624 30.8874 25.7243 29.462 26.8431 28.3431C27.962 27.2243 29.3874 26.4624 30.9393 26.1537C32.4911 25.845 34.0997 26.0035 35.5615 26.609C37.0233 27.2145 38.2727 28.2398 39.1518 29.5554C40.0308 30.871 40.5 32.4177 40.5 34C40.5 36.1217 39.6571 38.1566 38.1569 39.6569C36.6566 41.1571 34.6217 42 32.5 42Z" fill="#DE5454"/>
<path id="Vector_2" d="M32.5 42C36.9183 42 40.5 38.4183 40.5 34C40.5 29.5817 36.9183 26 32.5 26C28.0817 26 24.5 29.5817 24.5 34C24.5 38.4183 28.0817 42 32.5 42ZM32.5 42C30.1713 42 27.8746 42.5422 25.7918 43.5836C23.709 44.625 21.8972 46.1371 20.5 48M32.5 42C34.8287 42 37.1254 42.5422 39.2082 43.5836C41.291 44.625 43.1028 46.1371 44.5 48M24.5 16H40.5M52.5 10V54C52.5 55.1046 51.6046 56 50.5 56H14.5C13.3954 56 12.5 55.1046 12.5 54V10C12.5 8.89543 13.3954 8 14.5 8H50.5C51.6046 8 52.5 8.89543 52.5 10Z" stroke="#DE5454" stroke-width="2" stroke-linecap="round" stroke-linejoin="round"/>
</g>
</svg>
